<?xml version="1.0" encoding="UTF-8"?>
<svg class="chapter-skip-icon" xmlns="http://www.w3.org/2000/svg" viewBox="0 0 24 24">
  <g fill="currentColor" fill-rule="evenodd">
    <path d="M17.5,2 L6,2 C4.89556369,2 4,2.89515137 4,4 L4,19 C4,20.1048486 4.89556369,21 6,21 L18.5,21 C18.7761424,21 19,20.7761424 19,20.5 L19,5.5 C19,5.36192881 18.9440356,5.23692881 18.8535534,5.14644661 C18.7630712,5.05596441 18.6380712,5 18.5,5 L18,5 L18,2.5 C18,2.22385763 17.7761424,2 17.5,2 Z M17,5 L17,3 L6,3 C5.44774538,3 5,3.44753924 5,4 C5,4.55246076 5.44774538,5 6,5 L17,5 Z M18,6 L6,6 C5.63573235,6 5.29418643,5.90262301 5,5.73246242 L5,19 C5,19.5524608 5.44774538,20 6,20 L18,20 L18,6 Z"/>
    <path d="M9.85355339,15.8535534 C9.53857096,16.1685358 9,15.9454524 9,15.5 L9,9.5 C9,9.05454757 9.53857096,8.83146418 9.85355339,9.14644661 L12.8535534,12.1464466 C13.0488155,12.3417088 13.0488155,12.6582912 12.8535534,12.8535534 L9.85355339,15.8535534 Z"/>
    <path d="M11.7928932,12.5 L10,10.7071068 L10,14.2928932 L11.7928932,12.5 Z"/>
    <path d="M15,9.5 L15,15.5 C15,16.1666667 14,16.1666667 14,15.5 L14,9.5 C14,8.83333333 15,8.83333333 15,9.5 Z"/>
  </g>
</svg>
