<?xml version="1.0" encoding="UTF-8"?>
<svg xmlns="http://www.w3.org/2000/svg" class="chapters-icon" viewBox="0 0 60 60">
 <g fill="currentColor">
  <path d="M50.639,6.527c-0.215-0.307-0.872-1.245-2.157-1.257c-0.409,0-0.843,0.089-1.221,0.252c-0.667,0.288-1.333,0.577-2,0.865 l-4.985-2.32c0.072-0.182,0.071-0.339,0.067-0.502c-0.011-0.488-0.137-1.002-0.355-1.447c-0.451-0.917-1.311-1.463-2.298-1.463 c-0.372,0-0.742,0.078-1.101,0.232c-2.727,1.176-5.455,2.356-8.181,3.535l-15.861,6.86c-0.881,0.38-1.542,0.811-2.081,1.355 c-0.873,0.883-1.31,1.951-1.298,3.174c0.004,0.319,0.003,0.638,0.003,0.956L9.17,17.139l0.001,9.7 c0,8.411,0.001,16.821-0.003,25.229c-0.002,1.592,0.613,2.906,1.828,3.916c1.156,0.955,2.574,1.666,4.337,2.176 c1.158,0.334,2.357,0.547,3.694,0.656l0.1,0.02c0.071,0.016,0.143,0.023,0.215,0.023h1.931c0.054,0,0.108-0.004,0.162-0.014 l0.545-0.082c0.345-0.051,0.688-0.102,1.033-0.16c1.265-0.217,2.39-0.707,3.479-1.182l0.272-0.119 c7.491-3.25,14.985-6.498,22.48-9.74c0.562-0.244,1.028-0.617,1.386-1.109c0.132-0.182,0.203-0.4,0.203-0.625V7.138 C50.832,6.92,50.765,6.707,50.639,6.527z M38.504,5.593l4.14,1.925c-3.614,1.562-7.229,3.125-10.841,4.69l-4.363,1.889 c-1.323,0.574-2.645,1.148-3.969,1.718c-0.92,0.395-1.966,0.585-3.199,0.585c-0.105,0-0.211-0.001-0.315-0.003 c-1.259-0.034-2.401-0.214-3.454-0.55C30.189,9.91,36.02,7.111,38.504,5.593z M48.702,45.422c-0.089,0.074-0.189,0.135-0.306,0.186 c-7.495,3.24-14.99,6.49-22.481,9.74l-0.275,0.121c-1.017,0.443-1.978,0.861-2.984,1.035c-0.329,0.055-0.658,0.104-0.989,0.152 l-0.475,0.072h-1.733c-0.098-0.023-0.194-0.039-0.295-0.047c-1.164-0.088-2.224-0.275-3.24-0.57 c-1.497-0.432-2.631-0.992-3.568-1.768c-0.722-0.6-1.058-1.322-1.057-2.273c0.004-8.41,0.004-16.82,0.003-25.231l0-9.7l0-0.369 c0.001-0.329,0.001-0.657-0.003-0.983c-0.006-0.649,0.211-1.175,0.683-1.652c0.34-0.344,0.788-0.63,1.411-0.898l15.861-6.86 c2.725-1.179,5.453-2.359,8.179-3.533c0.09-0.04,0.176-0.059,0.257-0.059c0.062,0,0.251,0,0.386,0.273 c0.035,0.071,0.065,0.152,0.088,0.235c-0.066,0.054-0.146,0.112-0.234,0.173c-0.039,0.022-0.075,0.047-0.11,0.074 c-3.228,2.16-18.207,8.642-23.384,10.882l-0.617,0.268c-0.081,0.033-0.16,0.071-0.255,0.119l-0.116,0.057 c-0.355,0.169-0.586,0.522-0.604,0.915c-0.017,0.393,0.185,0.764,0.523,0.963l0.202,0.122c0.157,0.097,0.3,0.184,0.448,0.258 c1.744,0.887,3.669,1.346,5.888,1.405c1.663,0.037,3.122-0.203,4.41-0.756c1.326-0.571,2.651-1.145,3.976-1.719l4.361-1.89 C37.8,11.932,42.95,9.701,48.103,7.479c0.113-0.049,0.255-0.078,0.395-0.078c0.016-0.005,0.087-0.002,0.205,0.113V45.422z"/>
            <path d="M20.039,22.039c-0.588,0-1.065,0.478-1.065,1.065v27.135c0,0.588,0.477,1.066,1.065,1.066c0.588,0,1.066-0.479,1.066-1.066 V23.104C21.104,22.516,20.627,22.039,20.039,22.039z"/>
            <path d="M43.977,16.399c-0.287-0.2-0.652-0.247-0.979-0.126L26.125,22.49c-0.435,0.16-0.716,0.583-0.696,1.045l0.359,8.236 c0.015,0.346,0.196,0.66,0.485,0.848c0.175,0.113,0.376,0.172,0.579,0.172c0.133,0,0.266-0.025,0.393-0.074l16.515-6.543 c0.406-0.161,0.673-0.554,0.673-0.991v-7.91C44.432,16.925,44.261,16.598,43.977,16.399z M42.301,24.459l-14.45,5.725l-0.26-5.963 l14.709-5.419V24.459z"/>  </g>
</svg>
