<?xml version="1.0" encoding="UTF-8"?>
<svg class="skip-icon" xmlns="http://www.w3.org/2000/svg" viewBox="0 0 48 48">
  <g>
    <path fill="currentColor" d="M24 4c11 0 20 9 20 20s-9 20-20 20S4 35 4 24 13 4 24 4m0-2C11.85 2 2 11.85 2 24s9.85 22 22 22 22-9.85 22-22S36.15 2 24 2z"/>
    <path fill="currentColor" d="M38 24c0-7.7-6.3-14-14-14v3c6.1 0 11 4.9 11 11s-4.9 11-11 11-11-4.9-11-11h3l-4.5-7L7 24h3c0 7.7 6.3 14 14 14s14-6.3 14-14z"/>
    <text x="24" y="28" fill="currentColor" font-size="12" text-anchor="middle" font-family="Arial, sans-serif" font-weight="bold">30</text>
  </g>
</svg>
