<?xml version="1.0" encoding="UTF-8"?>
<svg class="play-icon" xmlns="http://www.w3.org/2000/svg" viewBox="0 0 100 90">
  <path fill="currentColor" d="M88.4 18.5l-4.2.1v-4.8c0-.4-.2-.8-.5-1.1-.3-.3-.7-.5-1.1-.4h-1.9c-11.7.4-23.8.7-30.7 7.8-6.9-7.1-19-7.4-30.7-7.8h-1.9c-.4 0-.8.1-1.1.4-.3.3-.5.7-.5 1.1v4.9l-4.2-.1c-.4 0-.8.2-1.1.4-.3.3-.5.7-.5 1.1v64.7c0 .4.2.8.5 1.1.3.3.7.5 1.1.4 12.9-.6 26.4-1 38 1.5h.6c11.7-2.5 25.2-2.1 38-1.5.4 0 .8-.1 1.1-.4.3-.3.5-.7.5-1.1V20c0-.4-.2-.8-.5-1.1-.3-.3-.7-.5-1.1-.4zm-60.9 64.2c-4.8 0-9.6.2-14.4.4V21.6l2.7.1v57.7c0 .4.2.8.5 1.1.3.3.7.4 1.1.4 8.5-.4 17.7-.3 24.8 2.4-4.9-.5-9.8-.7-14.7-.7zm22.5 1.5c-7.8-6.1-19.9-6.8-31.1-6.4V15.4h.3c11.7.3 23.9.6 29.6 8l.1.1.1.2h.1l.3.1h.9l.3-.1.3-.1h.1v-.1c5.7-7.3 17.8-7.6 29.6-8h.3v62.4c-11.2-.4-23.3.3-31.1 6.4zm36.9-1.1c-9.7-.4-19.8-.7-29.1.3 5.3-2 11.8-2.6 18.3-2.6 2.2 0 4.4.1 6.5.2.4 0 .8-.1 1.2-.4.3-.3.5-.7.5-1.1V21.6l2.7-.1z"/>
  <path fill="currentColor" d="M42 35L65 50 42 65z"/>
</svg>
