<?xml version="1.0" encoding="UTF-8"?>
<svg class="speed-toggle-icon" xmlns="http://www.w3.org/2000/svg" viewBox="0 0 64 64">
  <!-- Outer Ring Segments -->
  <path d="M17.766 13.311c.351 0 .706-.104 1.016-.32 2.755-1.919 5.824-3.19 9.122-3.778.968-.172 1.614-1.098 1.441-2.067-.172-.969-1.097-1.613-2.066-1.44-3.809.679-7.352 2.147-10.533 4.363-.807.562-1.006 1.672-.444 2.48.347.496.901.762 1.464.762z"/>
  <path d="M7.146 29.346c.106.019.211.028.315.028.847 0 1.598-.606 1.751-1.468.589-3.3 1.86-6.368 3.779-9.122.563-.809.365-1.919-.443-2.481-.808-.564-1.917-.364-2.48.443-2.215 3.179-3.683 6.723-4.363 10.533-.173.969.472 1.894 1.441 2.067z"/>
  <path d="M27.904 54.787c-3.298-.588-6.367-1.86-9.122-3.778-.807-.564-1.917-.364-2.48.443-.562.808-.364 1.918.444 2.48 3.18 2.216 6.724 3.683 10.533 4.363.106.019.211.028.315.028.847 0 1.598-.606 1.751-1.468.173-.97-.472-1.895-1.441-2.068z"/>
  <path d="M9.213 36.096c-.173-.969-1.099-1.614-2.066-1.44-.968.172-1.614 1.098-1.441 2.067.679 3.81 2.147 7.354 4.363 10.533.347.497.9.763 1.463.763.351 0 .706-.104 1.017-.32.807-.562 1.005-1.673.443-2.48-1.919-2.755-3.191-5.823-3.779-9.123z"/>
  <path d="M36.721 5.706c-.971-.176-1.894.471-2.067 1.44-.173.969.472 1.893 1.44 2.067C47.14 11.183 55.156 20.767 55.156 32S47.14 52.817 36.095 54.787c-.968.173-1.613 1.098-1.44 2.067.154.863.905 1.468 1.751 1.468.104 0 .209-.009.315-.028C49.468 56.02 58.719 44.962 58.719 32S49.468 7.98 36.721 5.706z"/>
  <!-- Play Triangle -->
  <path d="M40.706 32c0-1.127-.583-2.136-1.559-2.7l-9.397-5.426c-.975-.564-2.141-.563-3.117.001-.975.564-1.558 1.573-1.558 2.699v10.851c0 1.126.583 2.135 1.558 2.699.488.282 1.024.423 1.559.423.535 0 1.071-.141 1.559-.422l9.397-5.425c.976-.564 1.559-1.573 1.559-2.7zm-12.068 4.654v-9.308L36.698 32l-8.06 4.654z"/>
</svg>
