<?xml version="1.0" encoding="UTF-8"?>
<svg class="volume-on-icon" xmlns="http://www.w3.org/2000/svg" viewBox="0 0 100 100">
  <path d="M67.6,32.75a3,3,0,1,0-4,4.5,17,17,0,0,1,0,25.5,3,3,0,1,0,4,4.5,23,23,0,0,0,0-34.5Z" fill="currentColor"/>
  <path d="M76.62,69.91a3,3,0,0,0,4.05,4.42,33,33,0,0,0,0-48.67,3,3,0,0,0-4.05,4.42,27,27,0,0,1,0,39.82Z" fill="currentColor"/>
  <path d="M55.11,18.76a3,3,0,0,0-4.53-2L24.75,32.85H15.61a7,7,0,0,0-7,7v20.3a7,7,0,0,0,7,7h9.14L50.58,83.21a3,3,0,0,0,4.53-2A162,162,0,0,0,55.11,18.76ZM14.61,60.15V39.85a1,1,0,0,1,1-1h7v22.3h-7A1,1,0,0,1,14.61,60.15ZM50,75.79,28.64,62.51v-25L50,24.21A155.79,155.79,0,0,1,50,75.79Z" fill="currentColor"/>
</svg>
